<?xml version="1.0" encoding="UTF-8"?>
<svg id="Capa_2" data-name="Capa 2" xmlns="http://www.w3.org/2000/svg" viewBox="0 0 1800 1800">
  <defs>
    <style>
      .cls-1 {
        fill: rgb(6,23,121);
        stroke-width: 0px;
      }
    </style>
  </defs>
  <g id="Layer_1" data-name="Layer 1">
    <g>
      <path class="cls-1" d="m1412.64,1800H387.37C173.77,1800,0,1626.23,0,1412.63V387.36C0,173.77,173.77,0,387.37,0h1025.27c213.59,0,387.36,173.77,387.36,387.36v1025.27c0,213.6-173.77,387.37-387.36,387.37ZM387.37,84.58c-166.97,0-302.79,135.83-302.79,302.78v1025.27c0,166.97,135.83,302.79,302.79,302.79h1025.27c166.96,0,302.78-135.83,302.78-302.79V387.36c0-166.96-135.83-302.78-302.78-302.78H387.37Z"/>
      <path class="cls-1" d="m1177.09,540.13v-174.47s-178.42-1.68-190.52-1.68c-80.64,0-196.57,91.73-196.57,195.78v186.78h-167.08v198.08h164.81v491.42h195.06v-493.69h172.37l21.92-193.54h-192.03v-142.13c0-34.15,25.7-67.54,64.26-67.54,25.71,0,127.77,1.01,127.77,1.01Z"/>
    </g>
  </g>
</svg>